<svg version="1" xmlns="http://www.w3.org/2000/svg" width="1333.333" height="1333.333" viewBox="0 0 1000.000000 1000.000000"><path d="M469.2 43.6c-30.5 2.2-56.3 6-80.6 11.9-99.6 24-191.8 83-255.6 163.5-40.1 50.7-70.8 111.3-86.4 171.1-10.9 41.6-15.7 82.3-15.1 127.9C33 621.1 63.3 710.1 125 792.5c44.2 59 98.8 105 163 137.1 25.3 12.7 58.8 25.9 68.5 27 10.9 1.3 20-3.1 24.8-12 2.2-4.1 2.2-4.3 1.9-51.1-.2-25.8-.5-47.1-.6-47.2-.1-.1-5.4.7-11.7 1.8-20.9 3.8-59.1 2.6-81.6-2.6-22.5-5.2-44.7-20.3-55.8-37.9-2-3.2-5.9-11.2-8.6-17.7-6.5-16-10.5-23.7-18-35-7.7-11.5-23.1-27.3-31.3-31.8-11.1-6.2-21.8-18.8-20-23.5 2.5-6.6 27.3-7.4 41.8-1.4 8 3.3 20.1 10.7 28.5 17.4 9 7.3 15.6 15.1 24.4 29.4 12.7 20.4 24.7 31.9 42.3 40.6 11 5.4 19.7 7.4 32.9 7.4 18.6 0 35.9-3 51.6-9.1l7.5-2.9 1.2-7.7c2.8-17.6 11.8-37.2 22.5-48.9l5.8-6.3-3.3-.5c-1.8-.3-7.3-1-12.3-1.7-35.7-4.4-64.6-12.9-93.1-27.2-44.9-22.5-70.4-51.1-87.9-98.5-15.9-43.3-21-102-12.4-144.4 5.4-27.2 19.2-55.5 37.7-77.5l6.1-7.1-2.9-8.9c-5.5-17.2-6.5-24-6.4-45.8 0-17.7.3-21.4 2.7-32.5 2.9-13.5 9-33.7 11.2-36.7 1.2-1.5 2.8-1.8 11.7-1.7 14.8.1 26.5 3.4 55.8 15.7 19.6 8.2 32 14.6 48.1 24.9l13.5 8.7 9.5-2.4c35.9-9.2 66.5-12.9 107.9-12.9 39.5 0 69.2 3.4 103.3 11.8l13.8 3.5 15.2-9.6c37.2-23.5 80.4-40.6 101.6-40.2 10.6.2 11.3.6 14 7.9 14 38.6 16.2 74.4 6.6 106-1.5 4.7-2.9 9.4-3.1 10.5-.3 1.4 1.5 4.4 6.1 10 19.1 23.2 31.9 50.2 37.4 78.7 6 31.1 4 79.4-4.8 115.3-15.1 61.2-43.1 98-94.9 124.3-28.6 14.7-54.5 22.4-92.2 27.7-6.3.9-13 1.8-14.9 2.1l-3.4.5 5 5.2c11.5 11.9 18.7 26.6 23.6 47.9 2 8.9 2.1 12.7 2.6 89.3.6 75.5.7 80.2 2.5 83.5 4.9 9.3 10.3 12.4 21.1 12.4 7 0 9.6-.6 21-4.8 71.6-26.4 132-66.4 181.1-119.8 83.3-90.6 125.3-195.9 126.9-317.8.3-20.6 0-25.6-3.5-58-8.7-80.6-38.7-156.1-89.3-225C822.1 158.2 741 98.5 655 68.6c-41-14.3-77.5-21.6-125-25-23.4-1.7-37.8-1.7-60.8 0z"/><path d="M498.8 328.6c-.4.5-3.5 8.8-7.2 18.4-3.6 9.6-9.2 24.5-12.4 33-3.3 8.5-11.2 29.4-17.6 46.5-6.4 17-12.1 31.9-12.6 33-.9 1.9-23.4 61.5-30.4 80.2-1.6 4.6-3.3 7.9-3.7 7.5-.7-.6-12.9-31.4-27.9-70.2-3.4-8.8-37.3-95.7-46.2-118.5-2.2-5.5-4.4-11.2-5-12.8l-1-2.7h-25.4c-14 0-25.4.2-25.4.4s13.1 33.2 29.1 73.3c16 40 45.3 113.5 65.1 163.3 19.9 49.8 36.4 90.8 36.8 91.3.3.4 5.1-11.1 10.5-25.5 21.6-57.4 26.7-70.9 32.5-86.3 3.4-8.8 9.6-25.5 14-37 4.3-11.6 10.6-28.2 14-37 3.4-8.8 7.3-19.3 8.8-23.3 1.5-3.9 3-7.2 3.3-7.2.3 0 3.4 7.8 6.8 17.2 3.5 9.5 6.9 18.9 7.6 20.8.8 1.9 6.2 16.8 12 33s11.2 31.1 12 33c.7 1.9 6.8 18.6 13.4 37 6.7 18.4 13 35.7 14 38.5 1 2.7 4.4 12.1 7.6 20.7 3.1 8.7 6 15.6 6.4 15.3.4-.2 2-3.5 3.6-7.2 1.5-3.7 3.4-8.2 4.1-9.8.7-1.7 3.6-8.6 6.5-15.5 7.7-18.6 13.9-33.2 14.9-35.5.5-1.1 3.4-8.1 6.5-15.5s7.9-18.7 10.5-25c2.7-6.3 9.9-23.4 16-38 13.5-32.1 27.2-64.7 41.8-99.5 6-14.3 15.7-37.5 21.6-51.5 5.8-14 11.1-26.3 11.6-27.2.6-1 1-2 1-2.3 0-.3-11.5-.5-25.5-.5H665l-1.6 3.7c-.9 2.1-3.1 7.4-4.9 11.8-1.8 4.4-7.1 17.2-11.8 28.5-14.7 35.6-46.6 112.7-55.4 134-9.4 23.1-11.3 27.3-11.8 26.8-.3-.3-11.2-30-31.2-85.3-5.8-16-11.1-30.6-11.8-32.5-.8-1.9-6.8-18.6-13.5-37s-14.7-40.7-17.9-49.4c-3.2-8.7-6-15.5-6.3-15z"/></svg>